<svg height="2478" width="720" xmlns="http://www.w3.org/2000/svg">
<rect height="2478" fill="#555" width="720"></rect>
<text fill="#7f7" font-family="Courier New" font-size="12" xml:space="preserve">
<tspan x="10" y="26">57 megabytes installed</tspan>
<tspan x="10" y="42"></tspan>
<tspan x="10" y="58">node_modules</tspan>
<tspan x="10" y="74">└─┬ testium@3.3.1 </tspan>
<tspan x="10" y="90">  ├─┬ assertive@1.4.1 </tspan>
<tspan x="10" y="106">  │ └── underscore@1.5.1 </tspan>
<tspan x="10" y="122">  ├─┬ debug@2.6.4 </tspan>
<tspan x="10" y="138">  │ └── ms@0.7.3 </tspan>
<tspan x="10" y="154">  ├── lodash@3.10.1 </tspan>
<tspan x="10" y="170">  ├─┬ mkdirp@0.5.1 </tspan>
<tspan x="10" y="186">  │ └── minimist@0.0.8 </tspan>
<tspan x="10" y="202">  ├─┬ selenium-download@2.0.10 </tspan>
<tspan x="10" y="218">  │ ├── adm-zip@0.4.7 </tspan>
<tspan x="10" y="234">  │ ├─┬ async@2.3.0 </tspan>
<tspan x="10" y="250">  │ │ └── lodash@4.17.4 </tspan>
<tspan x="10" y="266">  │ ├─┬ fs.extra@1.3.2 </tspan>
<tspan x="10" y="282">  │ │ ├─┬ fs-extra@0.6.4 </tspan>
<tspan x="10" y="298">  │ │ │ ├── jsonfile@1.0.1 </tspan>
<tspan x="10" y="314">  │ │ │ ├── mkdirp@0.3.5 </tspan>
<tspan x="10" y="330">  │ │ │ ├── ncp@0.4.2 </tspan>
<tspan x="10" y="346">  │ │ │ └── rimraf@2.2.8 </tspan>
<tspan x="10" y="362">  │ │ ├── mkdirp@0.3.5 </tspan>
<tspan x="10" y="378">  │ │ └─┬ walk@2.3.9 </tspan>
<tspan x="10" y="394">  │ │   └── foreachasync@3.0.0 </tspan>
<tspan x="10" y="410">  │ ├── lodash@4.17.4 </tspan>
<tspan x="10" y="426">  │ ├─┬ request@2.81.0 </tspan>
<tspan x="10" y="442">  │ │ ├── aws-sign2@0.6.0 </tspan>
<tspan x="10" y="458">  │ │ ├── aws4@1.6.0 </tspan>
<tspan x="10" y="474">  │ │ ├── caseless@0.12.0 </tspan>
<tspan x="10" y="490">  │ │ ├─┬ combined-stream@1.0.5 </tspan>
<tspan x="10" y="506">  │ │ │ └── delayed-stream@1.0.0 </tspan>
<tspan x="10" y="522">  │ │ ├── extend@3.0.0 </tspan>
<tspan x="10" y="538">  │ │ ├── forever-agent@0.6.1 </tspan>
<tspan x="10" y="554">  │ │ ├─┬ form-data@2.1.4 </tspan>
<tspan x="10" y="570">  │ │ │ └── asynckit@0.4.0 </tspan>
<tspan x="10" y="586">  │ │ ├─┬ har-validator@4.2.1 </tspan>
<tspan x="10" y="602">  │ │ │ ├─┬ ajv@4.11.7 </tspan>
<tspan x="10" y="618">  │ │ │ │ ├── co@4.6.0 </tspan>
<tspan x="10" y="634">  │ │ │ │ └─┬ json-stable-stringify@1.0.1 </tspan>
<tspan x="10" y="650">  │ │ │ │   └── jsonify@0.0.0 </tspan>
<tspan x="10" y="666">  │ │ │ └── har-schema@1.0.5 </tspan>
<tspan x="10" y="682">  │ │ ├─┬ hawk@3.1.3 </tspan>
<tspan x="10" y="698">  │ │ │ ├── boom@2.10.1 </tspan>
<tspan x="10" y="714">  │ │ │ ├── cryptiles@2.0.5 </tspan>
<tspan x="10" y="730">  │ │ │ ├── hoek@2.16.3 </tspan>
<tspan x="10" y="746">  │ │ │ └── sntp@1.0.9 </tspan>
<tspan x="10" y="762">  │ │ ├─┬ http-signature@1.1.1 </tspan>
<tspan x="10" y="778">  │ │ │ ├── assert-plus@0.2.0 </tspan>
<tspan x="10" y="794">  │ │ │ ├─┬ jsprim@1.4.0 </tspan>
<tspan x="10" y="810">  │ │ │ │ ├── assert-plus@1.0.0 </tspan>
<tspan x="10" y="826">  │ │ │ │ ├── extsprintf@1.0.2 </tspan>
<tspan x="10" y="842">  │ │ │ │ ├── json-schema@0.2.3 </tspan>
<tspan x="10" y="858">  │ │ │ │ └── verror@1.3.6 </tspan>
<tspan x="10" y="874">  │ │ │ └─┬ sshpk@1.13.0 </tspan>
<tspan x="10" y="890">  │ │ │   ├── asn1@0.2.3 </tspan>
<tspan x="10" y="906">  │ │ │   ├── assert-plus@1.0.0 </tspan>
<tspan x="10" y="922">  │ │ │   ├── bcrypt-pbkdf@1.0.1 </tspan>
<tspan x="10" y="938">  │ │ │   ├─┬ dashdash@1.14.1 </tspan>
<tspan x="10" y="954">  │ │ │   │ └── assert-plus@1.0.0 </tspan>
<tspan x="10" y="970">  │ │ │   ├── ecc-jsbn@0.1.1 </tspan>
<tspan x="10" y="986">  │ │ │   ├─┬ getpass@0.1.6 </tspan>
<tspan x="10" y="1002">  │ │ │   │ └── assert-plus@1.0.0 </tspan>
<tspan x="10" y="1018">  │ │ │   ├── jodid25519@1.0.2 </tspan>
<tspan x="10" y="1034">  │ │ │   ├── jsbn@0.1.1 </tspan>
<tspan x="10" y="1050">  │ │ │   └── tweetnacl@0.14.5 </tspan>
<tspan x="10" y="1066">  │ │ ├── is-typedarray@1.0.0 </tspan>
<tspan x="10" y="1082">  │ │ ├── isstream@0.1.2 </tspan>
<tspan x="10" y="1098">  │ │ ├── json-stringify-safe@5.0.1 </tspan>
<tspan x="10" y="1114">  │ │ ├─┬ mime-types@2.1.15 </tspan>
<tspan x="10" y="1130">  │ │ │ └── mime-db@1.27.0 </tspan>
<tspan x="10" y="1146">  │ │ ├── oauth-sign@0.8.2 </tspan>
<tspan x="10" y="1162">  │ │ ├── performance-now@0.2.0 </tspan>
<tspan x="10" y="1178">  │ │ ├── qs@6.4.0 </tspan>
<tspan x="10" y="1194">  │ │ ├── safe-buffer@5.0.1 </tspan>
<tspan x="10" y="1210">  │ │ ├── stringstream@0.0.5 </tspan>
<tspan x="10" y="1226">  │ │ ├─┬ tough-cookie@2.3.2 </tspan>
<tspan x="10" y="1242">  │ │ │ └── punycode@1.4.1 </tspan>
<tspan x="10" y="1258">  │ │ ├── tunnel-agent@0.6.0 </tspan>
<tspan x="10" y="1274">  │ │ └── uuid@3.0.1 </tspan>
<tspan x="10" y="1290">  │ └─┬ xml2js@0.4.17 </tspan>
<tspan x="10" y="1306">  │   ├── sax@1.2.2 </tspan>
<tspan x="10" y="1322">  │   └─┬ xmlbuilder@4.2.1 </tspan>
<tspan x="10" y="1338">  │     └── lodash@4.17.4 </tspan>
<tspan x="10" y="1354">  ├─┬ testium-core@1.7.0 </tspan>
<tspan x="10" y="1370">  │ ├── bluebird@3.5.0 </tspan>
<tspan x="10" y="1386">  │ ├─┬ concat-stream@1.6.0 </tspan>
<tspan x="10" y="1402">  │ │ ├── inherits@2.0.3 </tspan>
<tspan x="10" y="1418">  │ │ ├─┬ readable-stream@2.2.9 </tspan>
<tspan x="10" y="1434">  │ │ │ ├── buffer-shims@1.0.0 </tspan>
<tspan x="10" y="1450">  │ │ │ ├── core-util-is@1.0.2 </tspan>
<tspan x="10" y="1466">  │ │ │ ├── isarray@1.0.0 </tspan>
<tspan x="10" y="1482">  │ │ │ ├── process-nextick-args@1.0.7 </tspan>
<tspan x="10" y="1498">  │ │ │ ├── string_decoder@1.0.0 </tspan>
<tspan x="10" y="1514">  │ │ │ └── util-deprecate@1.0.2 </tspan>
<tspan x="10" y="1530">  │ │ └── typedarray@0.0.6 </tspan>
<tspan x="10" y="1546">  │ ├── find-open-port@1.0.2 </tspan>
<tspan x="10" y="1562">  │ ├── lodash@4.17.4 </tspan>
<tspan x="10" y="1578">  │ ├─┬ mkdirp-then@1.2.0 </tspan>
<tspan x="10" y="1594">  │ │ └── any-promise@1.3.0 </tspan>
<tspan x="10" y="1610">  │ ├── qs@4.0.0 </tspan>
<tspan x="10" y="1626">  │ ├─┬ rc@1.2.1 </tspan>
<tspan x="10" y="1642">  │ │ ├── deep-extend@0.4.1 </tspan>
<tspan x="10" y="1658">  │ │ ├── ini@1.3.4 </tspan>
<tspan x="10" y="1674">  │ │ ├── minimist@1.2.0 </tspan>
<tspan x="10" y="1690">  │ │ └── strip-json-comments@2.0.1 </tspan>
<tspan x="10" y="1706">  │ ├─┬ read-package-json@2.0.5 </tspan>
<tspan x="10" y="1722">  │ │ ├─┬ glob@7.1.1 </tspan>
<tspan x="10" y="1738">  │ │ │ ├── fs.realpath@1.0.0 </tspan>
<tspan x="10" y="1754">  │ │ │ ├─┬ inflight@1.0.6 </tspan>
<tspan x="10" y="1770">  │ │ │ │ └── wrappy@1.0.2 </tspan>
<tspan x="10" y="1786">  │ │ │ ├─┬ minimatch@3.0.3 </tspan>
<tspan x="10" y="1802">  │ │ │ │ └─┬ brace-expansion@1.1.7 </tspan>
<tspan x="10" y="1818">  │ │ │ │   ├── balanced-match@0.4.2 </tspan>
<tspan x="10" y="1834">  │ │ │ │   └── concat-map@0.0.1 </tspan>
<tspan x="10" y="1850">  │ │ │ ├── once@1.4.0 </tspan>
<tspan x="10" y="1866">  │ │ │ └── path-is-absolute@1.0.1 </tspan>
<tspan x="10" y="1882">  │ │ ├── graceful-fs@4.1.11 </tspan>
<tspan x="10" y="1898">  │ │ ├─┬ json-parse-helpfulerror@1.0.3 </tspan>
<tspan x="10" y="1914">  │ │ │ └── jju@1.3.0 </tspan>
<tspan x="10" y="1930">  │ │ └─┬ normalize-package-data@2.3.8 </tspan>
<tspan x="10" y="1946">  │ │   ├── hosted-git-info@2.4.2 </tspan>
<tspan x="10" y="1962">  │ │   ├─┬ is-builtin-module@1.0.0 </tspan>
<tspan x="10" y="1978">  │ │   │ └── builtin-modules@1.1.1 </tspan>
<tspan x="10" y="1994">  │ │   ├── semver@5.3.0 </tspan>
<tspan x="10" y="2010">  │ │   └─┬ validate-npm-package-license@3.0.1 </tspan>
<tspan x="10" y="2026">  │ │     ├─┬ spdx-correct@1.0.2 </tspan>
<tspan x="10" y="2042">  │ │     │ └── spdx-license-ids@1.2.2 </tspan>
<tspan x="10" y="2058">  │ │     └── spdx-expression-parse@1.0.4 </tspan>
<tspan x="10" y="2074">  │ ├─┬ reverse-tunnel-ssh@1.1.0 </tspan>
<tspan x="10" y="2090">  │ │ ├─┬ debug@2.2.0 </tspan>
<tspan x="10" y="2106">  │ │ │ └── ms@0.7.1 </tspan>
<tspan x="10" y="2122">  │ │ ├── lodash.defaults@4.2.0 </tspan>
<tspan x="10" y="2138">  │ │ └─┬ ssh2@0.5.2 </tspan>
<tspan x="10" y="2154">  │ │   └─┬ ssh2-streams@0.1.16 </tspan>
<tspan x="10" y="2170">  │ │     └── streamsearch@0.1.2 </tspan>
<tspan x="10" y="2186">  │ ├─┬ subprocess@0.3.0 </tspan>
<tspan x="10" y="2202">  │ │ ├── async@0.9.2 </tspan>
<tspan x="10" y="2218">  │ │ └─┬ portscanner@1.2.0 </tspan>
<tspan x="10" y="2234">  │ │   └── async@1.5.2 </tspan>
<tspan x="10" y="2250">  │ └─┬ testium-cookie@1.0.2 </tspan>
<tspan x="10" y="2266">  │   └── lodash@4.17.4 </tspan>
<tspan x="10" y="2282">  ├─┬ testium-driver-sync@2.3.0 </tspan>
<tspan x="10" y="2298">  │ ├── assertive@2.1.1 </tspan>
<tspan x="10" y="2314">  │ ├── lodash@4.17.4 </tspan>
<tspan x="10" y="2330">  │ └─┬ webdriver-http-sync@2.6.0 </tspan>
<tspan x="10" y="2346">  │   ├── assertive@2.1.1 </tspan>
<tspan x="10" y="2362">  │   ├── bindings@1.2.1 </tspan>
<tspan x="10" y="2378">  │   ├── caseless@0.11.0 </tspan>
<tspan x="10" y="2394">  │   ├── coffee-script@1.12.5 </tspan>
<tspan x="10" y="2410">  │   ├── lodash@4.17.4 </tspan>
<tspan x="10" y="2426">  │   └── nan@2.6.2 </tspan>
<tspan x="10" y="2442">  └─┬ testium-mocha@1.1.0 </tspan>
<tspan x="10" y="2458">    └── lodash@4.17.4</tspan>
</text>
</svg>
